HIERARCHY
ROOT Hips
{
	OFFSET 0.000000 0.000000 0.000000
	CHANNELS 6 Xposition Yposition Zposition Xrotation Yrotation Zrotation
	JOINT LeftUpLeg_virtual
	{
		OFFSET 0.000000 0.000000 0.000000
		CHANNELS 3 Xrotation Yrotation Zrotation
		JOINT LeftUpLeg
		{
			OFFSET 13.026900 -6.336304 -1.092800
			CHANNELS 3 Xrotation Yrotation Zrotation
			JOINT LeftLeg
			{
				OFFSET 0.524474 -46.096886 9.782700
				CHANNELS 3 Xrotation Yrotation Zrotation
				JOINT LeftFoot
				{
					OFFSET -0.524474 -53.427422 -12.948200
					CHANNELS 3 Xrotation Yrotation Zrotation
					JOINT LeftToeBase
					{
						OFFSET 0.192200 -14.009700 16.364100
						CHANNELS 3 Xrotation Yrotation Zrotation
						JOINT LeftToe_End
						{
							OFFSET -1.784700 -0.561700 9.474800
							CHANNELS 3 Xrotation Yrotation Zrotation
							End Site
							{
								OFFSET 0 0 0
							}
						}
					}
				}
			}
		}
	}
	JOINT RightUpLeg_virtual
	{
		OFFSET 0.000000 0.000000 0.000000
		CHANNELS 3 Xrotation Yrotation Zrotation
		JOINT RightUpLeg
		{
			OFFSET -12.883000 -6.336304 -1.092800
			CHANNELS 3 Xrotation Yrotation Zrotation
			JOINT RightLeg
			{
				OFFSET -0.524587 -46.096825 9.782800
				CHANNELS 3 Xrotation Yrotation Zrotation
				JOINT RightFoot
				{
					OFFSET 0.524587 -53.427383 -12.948300
					CHANNELS 3 Xrotation Yrotation Zrotation
					JOINT RightToeBase
					{
						OFFSET -0.192200 -14.009700 16.364100
						CHANNELS 3 Xrotation Yrotation Zrotation
						JOINT RightToe_End
						{
							OFFSET 1.784700 -0.561700 9.474800
							CHANNELS 3 Xrotation Yrotation Zrotation
							End Site
							{
								OFFSET 0 0 0
							}
						}
					}
				}
			}
		}
	}
	JOINT Spine_virtual
	{
		OFFSET 0.000000 0.000000 0.000000
		CHANNELS 3 Xrotation Yrotation Zrotation
		JOINT Spine
		{
			OFFSET 0.072000 7.257294 -0.789700
			CHANNELS 3 Xrotation Yrotation Zrotation
			JOINT Spine1
			{
				OFFSET 0.000000 12.508769 -0.658067
				CHANNELS 3 Xrotation Yrotation Zrotation
				JOINT Spine1_split
				{
					OFFSET 0.000000 12.508769 -0.658067
					CHANNELS 3 Xrotation Yrotation Zrotation
					JOINT Spine2
					{
						OFFSET 0.000000 12.508769 -0.658067
						CHANNELS 3 Xrotation Yrotation Zrotation
						JOINT Neck_virtual
						{
							OFFSET 0.000000 0.000000 0.000000
							CHANNELS 3 Xrotation Yrotation Zrotation
							JOINT Neck
							{
								OFFSET 0.000000 14.033295 7.520400
								CHANNELS 3 Xrotation Yrotation Zrotation
								JOINT Head
								{
									OFFSET 0.000000 8.198502 5.703100
									CHANNELS 3 Xrotation Yrotation Zrotation
									JOINT HeadTop_End
									{
										OFFSET 0.000000 17.760803 13.332701
										CHANNELS 3 Xrotation Yrotation Zrotation
										End Site
										{
											OFFSET 0 0 0
										}
									}
								}
							}
						}
						JOINT LeftShoulder_virtual
						{
							OFFSET 0.000000 0.000000 0.000000
							CHANNELS 3 Xrotation Yrotation Zrotation
							JOINT LeftShoulder
							{
								OFFSET 6.292450 5.785301 -0.669000
								CHANNELS 3 Xrotation Yrotation Zrotation
								JOINT LeftShoulder_split
								{
									OFFSET 6.292450 5.785301 -0.669000
									CHANNELS 3 Xrotation Yrotation Zrotation
									JOINT LeftArm
									{
										OFFSET 13.907140 -6.093903 1.965100
										CHANNELS 3 Xrotation Yrotation Zrotation
										JOINT LeftForeArm
										{
											OFFSET 34.140198 0.000000 0.000000
											CHANNELS 3 Xrotation Yrotation Zrotation
											JOINT LeftHand
											{
												OFFSET 40.960209 0.000000 0.000000
												CHANNELS 3 Xrotation Yrotation Zrotation
												End Site
												{
													OFFSET 0 0 0
												}
											}
										}
									}
								}
							}
						}
						JOINT RightShoulder_virtual
						{
							OFFSET 0.000000 0.000000 0.000000
							CHANNELS 3 Xrotation Yrotation Zrotation
							JOINT RightShoulder
							{
								OFFSET -6.292450 5.785301 -0.669000
								CHANNELS 3 Xrotation Yrotation Zrotation
								JOINT RightShoulder_split
								{
									OFFSET -6.292450 5.785301 -0.669000
									CHANNELS 3 Xrotation Yrotation Zrotation
									JOINT RightArm
									{
										OFFSET -13.907140 -6.093903 1.965100
										CHANNELS 3 Xrotation Yrotation Zrotation
										JOINT RightForeArm
										{
											OFFSET -34.140198 0.000000 0.000000
											CHANNELS 3 Xrotation Yrotation Zrotation
											JOINT RightHand
											{
												OFFSET -40.960209 0.000000 0.000000
												CHANNELS 3 Xrotation Yrotation Zrotation
												End Site
												{
													OFFSET 0 0 0
												}
											}
										}
									}
								}
							}
						}
					}
				}
			}
		}
	}
}
MOTION
Frames: 8
Frame Time: 0.03333333
13.617795 91.936417 -6.065611 0.000000 0.000000 0.000000 49.957404 -82.128544 50.640996 -30.240383 -10.953083 24.512500 48.024860 -7.865958 9.861506 -21.431590 -1.763760 -23.245734 -14.826076 0.000016 0.000001 0.000000 0.000000 0.000000 49.957404 -82.128544 50.640996 -21.394560 7.976526 -27.594207 45.166074 5.385340 -9.554887 -31.916296 2.263083 24.858253 -8.821585 -0.000015 -0.000001 0.000000 0.000000 0.000000 49.957404 -82.128544 50.640996 1.241274 4.796216 3.146108 1.621332 3.844463 0.818267 0.000000 0.000000 0.000000 0.000000 0.000000 0.000000 1.538160 3.914629 0.837150 -4.079161 9.240778 -1.109268 -3.116176 44.156808 -2.045571 0.000000 0.000000 0.000000 1.538160 3.914629 0.837150 0.787337 9.731771 -8.832564 0.000000 0.000000 0.000000 -10.163124 11.269045 -65.934439 -179.999978 -63.581869 -179.999991 0.000000 0.000000 0.000000 1.538160 3.914629 0.837150 0.469776 13.491793 10.835795 0.000000 0.000000 0.000000 -9.891342 36.257223 44.312399 179.999827 78.869212 -179.999827 0.000000 0.000000 0.000000 
13.072926 91.850967 -5.995070 0.000000 0.000000 0.000000 34.962820 -81.625391 35.338866 -28.989362 -11.108369 24.852243 47.273437 -7.792121 9.811550 -23.525719 -2.497120 -22.904572 -13.628662 0.000013 0.000014 0.000000 0.000000 0.000000 34.962820 -81.625391 35.338866 -19.649688 7.160429 -27.637565 45.775125 5.561394 -9.609136 -30.402989 2.240080 25.828560 -10.408187 -0.000001 0.000011 0.000000 0.000000 0.000000 34.962820 -81.625391 35.338866 1.310829 4.436566 3.503855 1.674576 3.524501 1.048238 0.000000 0.000000 0.000000 0.000000 0.000000 0.000000 1.609795 3.584450 1.064621 -2.945500 8.978279 -1.211499 -3.441613 42.960415 -1.394686 0.000000 0.000000 0.000000 1.609795 3.584450 1.064621 0.654793 7.533280 -7.402836 0.000000 0.000000 0.000000 -5.403856 12.550879 -68.677743 -179.999964 -61.750279 -179.999950 0.000000 0.000000 0.000000 1.609795 3.584450 1.064621 0.654557 13.133338 8.324373 0.000000 0.000000 0.000000 -11.309129 35.091364 48.626876 179.999964 78.103684 -179.999964 0.000000 0.000000 0.000000 
11.658491 96.418488 -5.788580 0.000000 0.000000 0.000000 16.535130 -77.688771 16.904810 -28.803553 -8.360769 24.166966 41.057445 -8.009671 9.871479 -17.362973 -10.713612 -23.171618 -14.683522 0.000006 0.000006 0.000000 0.000000 0.000000 16.535130 -77.688771 16.904810 -15.358859 3.031400 -26.873442 41.593321 6.548414 -9.853427 -20.129648 2.292291 26.180894 -17.632611 -0.000024 0.000000 0.000000 0.000000 0.000000 16.535130 -77.688771 16.904810 0.985125 4.506721 3.843327 1.364926 3.425533 0.933034 0.000000 0.000000 0.000000 0.000000 0.000000 0.000000 1.299355 3.484986 0.928857 -2.094440 8.124946 -1.381039 -2.236920 38.340775 -0.194032 0.000000 0.000000 0.000000 1.299355 3.484986 0.928857 0.623446 7.184076 -6.717692 0.000000 0.000000 0.000000 -3.255296 6.222742 -65.186274 179.999991 -62.493635 179.999978 0.000000 0.000000 0.000000 1.299355 3.484986 0.928857 0.732046 11.989991 7.098539 0.000000 0.000000 0.000000 -9.801468 33.018931 50.192707 -179.999800 75.039962 179.999814 0.000000 0.000000 0.000000 
10.382788 103.394447 -6.310732 0.000000 0.000000 0.000000 8.779500 -71.350390 9.573842 -29.460505 -3.844825 21.790122 31.001894 -8.449057 10.372212 -2.848885 -22.850726 -20.704306 -19.819778 0.000010 0.000004 0.000000 0.000000 0.000000 8.779500 -71.350390 9.573842 -12.693380 -1.109063 -25.858326 36.567064 7.482875 -8.618683 -1.112647 3.438093 24.576055 -26.813772 -0.081354 2.181672 0.000000 0.000000 0.000000 8.779500 -71.350390 9.573842 0.427840 4.864661 3.466177 0.852121 3.485847 0.754326 0.000000 0.000000 0.000000 0.000000 0.000000 0.000000 0.783427 3.538963 0.730216 -1.187060 7.052543 -1.747765 -0.532125 32.436811 0.464401 0.000000 0.000000 0.000000 0.783427 3.538963 0.730216 0.631626 7.428712 -6.398274 0.000000 0.000000 0.000000 -3.535903 -2.425775 -59.961507 179.999978 -64.101052 179.999978 0.000000 0.000000 0.000000 0.783427 3.538963 0.730216 0.774070 11.005982 6.249566 0.000000 0.000000 0.000000 -7.836075 30.143571 49.304615 -179.999950 71.600176 179.999978 0.000000 0.000000 0.000000 
9.555440 110.679192 -7.381094 0.000000 0.000000 0.000000 5.267076 -64.305159 7.145676 -27.666209 0.449238 17.923905 18.000984 -9.494769 8.861755 19.028195 -27.050363 -12.192380 -18.768453 0.654193 -6.276763 0.000000 0.000000 0.000000 5.267076 -64.305159 7.145676 -11.892908 -3.687618 -24.848464 32.970382 8.729170 -6.134710 18.927417 5.649884 17.592366 -33.933056 -2.123386 7.447446 0.000000 0.000000 0.000000 5.267076 -64.305159 7.145676 0.053700 4.839439 2.203324 0.447785 3.414575 0.672030 0.000000 0.000000 0.000000 0.000000 0.000000 0.000000 0.384778 3.459937 0.635139 -0.066088 6.023364 -2.092372 1.041129 26.981325 0.476843 0.000000 0.000000 0.000000 0.384778 3.459937 0.635139 0.699286 5.760004 -6.278176 0.000000 0.000000 0.000000 -4.279824 -7.456912 -56.699098 179.999964 -65.285578 179.999964 0.000000 0.000000 0.000000 0.384778 3.459937 0.635139 0.767347 10.535633 6.363163 0.000000 0.000000 0.000000 -5.778221 26.229120 45.684786 -179.999964 68.887881 179.999964 0.000000 0.000000 0.000000 
9.017851 117.106827 -7.735506 0.000000 0.000000 0.000000 3.738206 -58.472198 5.894310 -26.466472 2.556798 15.785875 13.939969 -9.388606 7.036854 20.342055 -15.377433 -13.571938 -0.379466 -0.000019 -0.000005 0.000000 0.000000 0.000000 3.738206 -58.472198 5.894310 -13.241351 -3.362486 -22.982953 35.241314 8.793464 -5.097648 21.305701 3.182132 11.589666 -2.543409 -0.087061 2.353462 0.000000 0.000000 0.000000 3.738206 -58.472198 5.894310 -0.110779 4.336379 1.908832 0.247770 3.118950 0.650667 0.000000 0.000000 0.000000 0.000000 0.000000 0.000000 0.190741 3.164389 0.607546 0.410423 5.342824 -2.284646 1.788338 23.331002 0.742202 0.000000 0.000000 0.000000 0.190741 3.164389 0.607546 0.784877 4.211127 -6.789355 0.000000 0.000000 0.000000 -3.975722 -9.440257 -55.110846 179.999937 -65.749894 179.999923 0.000000 0.000000 0.000000 0.190741 3.164389 0.607546 0.701143 9.829436 7.579467 0.000000 0.000000 0.000000 -2.955948 23.088910 39.872349 179.999978 67.471757 -179.999978 0.000000 0.000000 0.000000 
8.779835 121.828102 -8.043062 0.000000 0.000000 0.000000 3.560885 -54.407610 5.935676 -25.597314 4.720414 14.866837 15.078128 -9.526821 4.658799 13.677082 -4.243193 -17.964933 2.625886 -0.000005 0.000005 0.000000 0.000000 0.000000 3.560885 -54.407610 5.935676 -16.346150 -0.688065 -21.199176 38.200869 5.323717 -5.239698 15.153840 2.477338 9.325281 1.363215 -0.000018 -0.000014 0.000000 0.000000 0.000000 3.560885 -54.407610 5.935676 0.263333 3.485108 1.415511 0.547867 2.691301 0.398642 0.000000 0.000000 0.000000 0.000000 0.000000 0.000000 0.502949 2.736627 0.358696 -0.106717 5.130833 -2.416548 1.701858 21.957757 0.951249 0.000000 0.000000 0.000000 0.502949 2.736627 0.358696 0.836696 3.825862 -7.678218 0.000000 0.000000 0.000000 -4.731118 -9.787483 -54.636708 -180.000005 -65.561832 179.999978 0.000000 0.000000 0.000000 0.502949 2.736627 0.358696 0.664578 9.188767 7.779020 0.000000 0.000000 0.000000 -1.851458 21.396993 36.493742 179.999950 68.113563 -179.999937 0.000000 0.000000 0.000000 
8.712263 124.473824 -8.481871 0.000000 0.000000 0.000000 3.633072 -50.482779 6.482235 -24.469621 6.251407 13.784632 17.856263 -9.300948 2.581228 11.009561 0.569690 -20.914251 0.437610 0.000006 0.000008 0.000000 0.000000 0.000000 3.633072 -50.482779 6.482235 -20.189465 1.156758 -20.375711 38.545619 4.862434 -5.225580 10.243832 2.379222 11.180760 -0.701084 -0.000003 0.000003 0.000000 0.000000 0.000000 3.633072 -50.482779 6.482235 0.989475 2.272391 0.303679 1.199873 2.076383 0.071151 0.000000 0.000000 0.000000 0.000000 0.000000 0.000000 1.173708 2.121612 0.032942 -0.915224 5.075861 -2.395927 1.160364 21.641796 0.749547 0.000000 0.000000 0.000000 1.173708 2.121612 0.032942 0.852205 3.629377 -8.174250 0.000000 0.000000 0.000000 -7.663808 -9.938813 -55.360213 179.999991 -65.797835 179.999991 0.000000 0.000000 0.000000 1.173708 2.121612 0.032942 0.667948 8.774011 6.786660 0.000000 0.000000 0.000000 -3.279952 19.838331 36.986878 -179.999937 70.067796 179.999950 0.000000 0.000000 0.000000 
